<svg width="65" height="65" viewBox="0 0 65 65" fill="none" xmlns="http://www.w3.org/2000/svg">
<path d="M61.2083 65C53.6852 65 46.2523 63.36 38.9097 60.0799C31.5671 56.7998 24.8866 52.1505 18.8681 46.1319C12.8495 40.1134 8.20023 33.4329 4.92014 26.0903C1.64005 18.7477 0 11.3148 0 3.79167C0 2.70833 0.361111 1.80556 1.08333 1.08333C1.80556 0.361111 2.70833 0 3.79167 0H18.4167C19.2593 0 20.0116 0.28588 20.6736 0.857639C21.3356 1.4294 21.7269 2.10648 21.8472 2.88889L24.1944 15.5278C24.3148 16.4907 24.2847 17.3032 24.1042 17.9653C23.9236 18.6273 23.5926 19.1991 23.1111 19.6806L14.3542 28.5278C15.5579 30.7546 16.9873 32.9062 18.6424 34.9826C20.2975 37.059 22.1181 39.0602 24.1042 40.9861C25.9699 42.8519 27.9259 44.5822 29.9722 46.1771C32.0185 47.772 34.1852 49.2315 36.4722 50.5556L44.9583 42.0694C45.5 41.5278 46.2072 41.1215 47.0799 40.8507C47.9525 40.5799 48.8102 40.5046 49.6528 40.625L62.1111 43.1528C62.9537 43.3935 63.6458 43.8299 64.1875 44.4618C64.7292 45.0937 65 45.8009 65 46.5833V61.2083C65 62.2917 64.6389 63.1944 63.9167 63.9167C63.1944 64.6389 62.2917 65 61.2083 65Z" fill="#933B0E"/>
</svg>
