<svg width="76" height="65" viewBox="0 0 76 65" fill="none" xmlns="http://www.w3.org/2000/svg">
<path d="M0 65V57.7778H18.0952V50.5556H3.61905V43.3333H18.0952V36.1111H7.41905V28.8889H18.0952V18.2361L11.0381 3.06944L17.5524 0L26.0571 18.0556H68.0381L60.981 3.06944L67.4952 0L76 18.0556V65H0ZM39.8095 39.7222H54.2857C55.3111 39.7222 56.1706 39.3762 56.8643 38.684C57.5579 37.9919 57.9048 37.1343 57.9048 36.1111C57.9048 35.088 57.5579 34.2303 56.8643 33.5382C56.1706 32.8461 55.3111 32.5 54.2857 32.5H39.8095C38.7841 32.5 37.9246 32.8461 37.231 33.5382C36.5373 34.2303 36.1905 35.088 36.1905 36.1111C36.1905 37.1343 36.5373 37.9919 37.231 38.684C37.9246 39.3762 38.7841 39.7222 39.8095 39.7222Z" fill="#933B0E"/>
</svg>
