<svg width="29" height="29" viewBox="0 0 29 29" fill="none" xmlns="http://www.w3.org/2000/svg">
<path d="M25.8525 29L18.5867 21.8171C17.7006 22.563 16.6816 23.1535 15.5297 23.5886C14.3778 24.0237 13.1521 24.2413 11.8525 24.2413C8.63307 24.2413 5.90839 23.068 3.67843 20.7216C1.44848 18.3752 0.333496 15.5082 0.333496 12.1206C0.333496 8.73307 1.44848 5.86607 3.67843 3.51964C5.90839 1.17321 8.63307 0 11.8525 0C15.0719 0 17.7966 1.17321 20.0265 3.51964C22.2565 5.86607 23.3715 8.73307 23.3715 12.1206C23.3715 13.4881 23.1647 14.7778 22.7512 15.9899C22.3377 17.202 21.7765 18.2742 21.0677 19.2065L28.3335 26.3894L25.8525 29ZM11.8525 20.5118C14.0677 20.5118 15.9506 19.696 17.5012 18.0644C19.0519 16.4328 19.8272 14.4515 19.8272 12.1206C19.8272 9.78974 19.0519 7.80848 17.5012 6.17686C15.9506 4.54524 14.0677 3.72942 11.8525 3.72942C9.63729 3.72942 7.75438 4.54524 6.20375 6.17686C4.65312 7.80848 3.8778 9.78974 3.8778 12.1206C3.8778 14.4515 4.65312 16.4328 6.20375 18.0644C7.75438 19.696 9.63729 20.5118 11.8525 20.5118Z" fill="black"/>
</svg>
