<svg width="30" height="30" viewBox="0 0 30 30" fill="none" xmlns="http://www.w3.org/2000/svg">
<path d="M9.06708 30C8.31653 30 7.67835 29.7356 7.15255 29.2067C6.62676 28.6778 6.36386 28.0359 6.36386 27.2809C6.36386 26.5259 6.62676 25.884 7.15255 25.3551C7.67835 24.8263 8.31653 24.5618 9.06708 24.5618C9.81766 24.5618 10.4559 24.8263 10.9816 25.3551C11.5074 25.884 11.7703 26.5259 11.7703 27.2809C11.7703 28.0359 11.5074 28.6778 10.9816 29.2067C10.4559 29.7356 9.81766 30 9.06708 30ZM24.039 30C23.2884 30 22.6502 29.7356 22.1244 29.2067C21.5986 28.6778 21.3357 28.0359 21.3357 27.2809C21.3357 26.5259 21.5986 25.884 22.1244 25.3551C22.6502 24.8263 23.2884 24.5618 24.039 24.5618C24.7895 24.5618 25.4277 24.8263 25.9535 25.3551C26.4793 25.884 26.7422 26.5259 26.7422 27.2809C26.7422 28.0359 26.4793 28.6778 25.9535 29.2067C25.4277 29.7356 24.7895 30 24.039 30ZM7.30846 5.43823L11.2237 13.6853H21.7546C21.8437 13.6853 21.9229 13.6629 21.9922 13.618C22.0616 13.5732 22.121 13.511 22.1705 13.4313L26.3145 5.85655C26.3739 5.74698 26.3789 5.64987 26.3293 5.56521C26.2798 5.48053 26.1957 5.43819 26.0768 5.43819L7.30846 5.43823ZM6.19745 3.10762H27.6453C28.277 3.10762 28.7548 3.37803 29.0786 3.91885C29.4024 4.4597 29.4177 5.012 29.1246 5.57574L24.1756 14.5936C23.9221 15.0418 23.5869 15.3909 23.17 15.6409C22.7532 15.8909 22.2962 16.0159 21.7991 16.0159H10.5286L8.7403 19.3028C8.66108 19.4223 8.65861 19.5518 8.73288 19.6913C8.80716 19.8307 8.91856 19.9004 9.06708 19.9004H26.7422V22.2311H9.06708C8.03729 22.2311 7.26345 21.7843 6.74556 20.8909C6.22769 19.9975 6.20937 19.1056 6.69061 18.2152L8.89485 14.2291L3.27441 2.33061H0.333496V0H4.72997L6.19745 3.10762Z" fill="black"/>
</svg>
